<svg id="Flat" height="512" viewBox="0 0 512 512" width="512" xmlns="http://www.w3.org/2000/svg"><path d="m328 24h-248v464h352v-360z" fill="#65dcff"/><path d="m328 24v104h104z" fill="#57c1ff"/><path d="m112 160h288v288h-288z" fill="#3ea7ff"/><path d="m400 360v88h-264l24-48 32-16-16-56 96 96 40-48-8-16 24-24-16-64z" fill="#a0cc00"/><path d="m192 384-32 16-24 48h-24v-56l64-64z" fill="#c8ea6d"/><path d="m304 360 8 16-40 48-56-56 96-96 16 64z" fill="#c8ea6d"/><path d="m216 200a64.00924 64.00924 0 0 1 -104 49.97v-89.97h89.97a63.71935 63.71935 0 0 1 14.03 40z" fill="#fc7"/></svg>