<svg height="512pt" viewBox="-11 0 512 512" width="512pt" xmlns="http://www.w3.org/2000/svg"><path d="m375.972656 37.625-374.742187 232.4375c12.382812 123.917969 116.960937 220.675781 244.140625 220.675781 135.511718 0 245.367187-109.855469 245.367187-245.367187 0-87.511719-45.820312-164.308594-114.765625-207.746094zm0 0" fill="#00c82f"/><path d="m245.371094 0c-135.515625 0-245.371094 109.855469-245.371094 245.371094 0 5.117187.175781 10.195312.484375 15.238281h352.652344c7.242187 0 13.167969-5.925781 13.167969-13.167969v-215.605468c-35.695313-20.257813-76.960938-31.835938-120.933594-31.835938zm0 0" fill="#4fbbff"/><path d="m91.382812 245.441406c-6.558593-14.757812 6.160157-22.519531 6.160157-22.519531 13.960937-6.542969 23.925781-22.660156 12.40625-41.433594-7.414063-12.085937-3.6875-23.332031-.089844-29.816406 1.859375-3.351563 1.035156-7.527344-1.957031-9.929687-28.707032-23.011719-15.902344-55.210938-8.851563-68.304688 1.621094-3.007812 1.117188-6.746094-1.320312-9.140625-6.125-6.023437-1.46875-13.496094-1.089844-14.078125-58.734375 44.832031-96.640625 115.558594-96.640625 195.152344 0 5.117187.175781 10.195312.484375 15.238281h87.84375c-.015625-3.089844 1.171875-5.710937 2.4375-7.613281 1.496094-2.253906 1.71875-5.082032.617187-7.554688zm0 0" fill="#27a3ff"/><path d="m323.882812 83.875c-6.050781 13.105469-19.304687 22.222656-34.660156 22.222656-21.046875 0-38.167968-17.121094-38.167968-38.164062 0-3.359375.441406-6.613282 1.257812-9.71875-26.074219-20.882813-51.0625-27.113282-71.867188-26.910156-48.269531.46875-73.078124 34.117187-85.601562 42.746093 0 0-17.488281 15.574219-43.394531 20.984375-32.242188 41.53125-51.449219 93.6875-51.449219 150.335938 0 5.117187.175781 10.195312.484375 15.238281h352.652344c6.25 0 11.511719-4.417969 12.835937-10.285156.125-186.980469-.296875-177.332031.332032-182.140625-11.015626 7.21875-25.492188 14.007812-42.421876 15.691406zm0 0" fill="#27a3ff"/><path d="m91.382812 245.441406c-6.558593-14.757812 6.160157-22.519531 6.160157-22.519531 13.960937-6.542969 23.925781-22.660156 12.40625-41.433594-7.414063-12.085937-3.6875-23.332031-.089844-29.816406 1.859375-3.351563 1.035156-7.527344-1.957031-9.929687-28.707032-23.011719-15.902344-55.210938-8.851563-68.304688.601563-1.117188.90625-2.335938.933594-3.546875-1.90625 1.683594-3.617187 3.109375-5.140625 4.160156 0 0-17.488281 15.574219-43.394531 20.984375-32.242188 41.53125-51.449219 93.6875-51.449219 150.335938 0 5.117187.175781 10.195312.484375 15.238281h87.84375c-.015625-3.089844 1.171875-5.710937 2.4375-7.613281 1.496094-2.253906 1.71875-5.082032.617187-7.554688zm0 0" fill="#0080f4"/><path d="m309.761719 131.113281-15.910157 15.914063c-3.914062 3.914062-10.261718 3.914062-14.175781 0l-65.554687-65.554688c-9.894532-9.898437-25.941406-9.898437-35.835938 0l-84.460937 84.457032c-3.253907 3.257812-8.535157 3.257812-11.792969 0l-19.175781-19.171876c-10.195313-10.195312-26.722657-10.195312-36.917969 0l-9.085938 9.085938c-10.875 27.734375-16.851562 57.933594-16.851562 89.527344 0 5.117187.175781 10.195312.484375 15.238281h352.652344c6.25 0 11.511719-4.417969 12.835937-10.285156v-95.441407l-23.769531-23.769531c-8.957031-8.957031-23.484375-8.957031-32.441406 0zm0 0" fill="#a2ec00"/><path d="m91.382812 245.441406c-6.558593-14.757812 6.160157-22.519531 6.160157-22.519531 13.960937-6.542969 23.925781-22.660156 12.40625-41.433594-7.414063-12.085937-3.6875-23.332031-.089844-29.816406.472656-.851563.769531-1.761719.90625-2.679687l-16.941406 16.9375c-3.253907 3.257812-8.535157 3.257812-11.792969 0l-19.175781-19.171876c-10.195313-10.195312-26.722657-10.195312-36.917969 0l-9.085938 9.085938c-10.875 27.734375-16.851562 57.933594-16.851562 89.527344 0 5.117187.175781 10.195312.484375 15.238281h87.84375c-.015625-3.089844 1.171875-5.710937 2.4375-7.613281 1.496094-2.253906 1.71875-5.082032.617187-7.554688zm0 0" fill="#00c82f"/><path d="m257.359375 204.320312c-117.542969-90.535156-144.699219 86.402344-255.644531 12.042969-1.121094 9.515625-1.714844 19.191407-1.714844 29.007813 0 5.117187.175781 10.195312.484375 15.238281h352.652344c6.25 0 11.511719-4.417969 12.835937-10.285156v-51.472657c-23.09375 23.222657-60.445312 42.566407-108.613281 5.46875zm0 0" fill="#00c82f"/><path d="m91.382812 245.441406c-6.558593-14.757812 6.160157-22.519531 6.160157-22.519531-26.472657 14.339844-55.65625 20.363281-95.828125-6.558594-1.121094 9.515625-1.714844 19.191407-1.714844 29.007813 0 5.117187.175781 10.195312.484375 15.238281h87.84375c-.015625-3.089844 1.171875-5.710937 2.4375-7.613281 1.496094-2.253906 1.71875-5.082032.617187-7.554688zm0 0" fill="#02ad22"/><path d="m101.796875 220.535156c-1.410156.816406-2.828125 1.613282-4.253906 2.386719 1.46875-.691406 2.894531-1.492187 4.253906-2.386719zm0 0" fill="#02ad22"/><path d="m329.03125 67.933594c0 21.988281-17.824219 39.8125-39.808594 39.8125-21.988281 0-39.8125-17.824219-39.8125-39.8125 0-21.988282 17.824219-39.8125 39.8125-39.8125 21.984375 0 39.808594 17.824218 39.808594 39.8125zm0 0" fill="#fecd0a"/><path d="m313.167969 92.75c-21.984375 0-39.808594-17.824219-39.808594-39.8125 0-9.039062 3.015625-17.367188 8.089844-24.050781-18.265625 3.617187-32.039063 19.71875-32.039063 39.046875 0 21.988281 17.824219 39.8125 39.8125 39.8125 12.945313 0 24.449219-6.1875 31.71875-15.761719-2.515625.5-5.113281.765625-7.773437.765625zm0 0" fill="#fca60d"/><path d="m355.328125 25.976562v221.464844c0 1.191406-1.003906 2.195313-2.191406 2.195313h-353.0820315c.1250005 7.398437.5742185 14.722656 1.3398435 21.945312h351.742188c13.308593 0 24.140625-10.828125 24.140625-24.140625v-209c-7.074219-4.519531-14.402344-8.675781-21.949219-12.464844zm0 0" fill="#86fdfb"/><path d="m79.652344 261.464844c-.003906-.074219-.007813-.148438-.011719-.21875-.398437-6.28125 4.546875-11.609375 10.839844-11.609375h-90.4257815c.1250005 7.398437.5742185 14.722656 1.3398435 21.945312h89.101563c-5.710938 0-10.476563-4.417969-10.84375-10.117187zm0 0" fill="#11dfef"/><path d="m402.71875 403.644531h-244.410156c-7.242188 0-13.167969-5.925781-13.167969-13.167969v-244.410156c0-7.238281 5.925781-13.167968 13.167969-13.167968h244.410156c7.242188 0 13.167969 5.929687 13.167969 13.167968v244.414063c0 7.238281-5.925781 13.164062-13.167969 13.164062zm0 0" fill="#4fbbff"/><path d="m145.140625 146.066406v244.414063c0 7.238281 5.925781 13.167969 13.167969 13.167969h64.363281c.035156-6.445313 6.792969-10.761719 6.792969-10.761719s23.367187-16.355469 2.335937-32.046875 4.414063-32.039063 4.414063-32.039063 32.296875-9.742187 1.949218-41.40625c-20.875-21.78125-9.332031-43.480469-.089843-54.90625 3.484375-4.308593 3.210937-10.578125-.800781-14.402343-11.40625-10.882813-6.363282-23.375-1.636719-30.589844 2.371093-3.617188 2.304687-8.273438-.175781-11.816406-8.089844-11.558594-4.382813-20.914063-.316407-26.414063 2.339844-3.171875 2.882813-7.40625 1.089844-10.917969-.988281-1.9375-1.429687-3.761718-1.507813-5.449218h-76.417968c-7.242188 0-13.167969 5.925781-13.167969 13.167968zm0 0" fill="#27a3ff"/><path d="m372.007812 234.445312c-5.585937 9.371094-15.816406 15.664063-27.496093 15.664063-17.636719 0-31.988281-14.351563-31.988281-31.988281 0-1.507813.113281-2.992188.316406-4.441406-1.746094-1.304688-3.5-2.65625-5.265625-4.105469-26.605469-21.832031-52.136719-28.289063-73.328125-28.082031-48.273438.46875-73.082032 34.117187-85.601563 42.746093 0 0-1.230469 1.089844-3.503906 2.792969v163.445312c0 7.242188 5.925781 13.167969 13.167969 13.167969h244.410156c7.242188 0 13.167969-5.925781 13.167969-13.167969v-169.476562c-11.699219 6.957031-26.640625 12.953125-43.878907 13.445312zm0 0" fill="#27a3ff"/><path d="m229.464844 392.886719s23.367187-16.355469 2.335937-32.046875 4.414063-32.039063 4.414063-32.039063 32.296875-9.742187 1.949218-41.40625c-20.875-21.78125-9.332031-43.480469-.089843-54.90625 3.484375-4.308593 3.210937-10.578125-.800781-14.40625-11.40625-10.878906-6.363282-23.371093-1.636719-30.585937 1.191406-1.824219 1.765625-3.910156 1.726562-5.980469-1.046875-.023437-2.089843-.035156-3.121093-.023437-48.269532.46875-73.078126 34.117187-85.597657 42.746093 0 0-1.230469 1.089844-3.503906 2.792969v163.445312c0 7.242188 5.925781 13.167969 13.167969 13.167969h64.363281c.035156-6.441406 6.792969-10.757812 6.792969-10.757812zm0 0" fill="#0080f4"/><path d="m396.003906 281.300781c-8.960937-8.957031-23.484375-8.957031-32.441406 0l-15.910156 15.914063c-3.914063 3.914062-10.261719 3.914062-14.175782 0l-65.554687-65.554688c-9.898437-9.898437-25.941406-9.898437-35.839844 0l-84.457031 84.457032c-.738281.738281-1.585938 1.300781-2.484375 1.703124v72.65625c0 7.242188 5.925781 13.167969 13.167969 13.167969h244.410156c7.242188 0 13.167969-5.925781 13.167969-13.167969v-89.292968zm0 0" fill="#a2ec00"/><path d="m229.464844 392.886719s23.367187-16.355469 2.335937-32.046875 4.414063-32.039063 4.414063-32.039063 32.296875-9.742187 1.949218-41.40625c-20.875-21.78125-9.332031-43.480469-.089843-54.90625 1.523437-1.882812 2.328125-4.140625 2.417969-6.40625-3.0625 1.238281-5.929688 3.097657-8.410157 5.578125l-84.457031 84.457032c-.738281.738281-1.585938 1.300781-2.484375 1.703124v72.65625c0 7.242188 5.925781 13.167969 13.167969 13.167969h64.363281c.035156-6.441406 6.792969-10.757812 6.792969-10.757812zm0 0" fill="#00c82f"/><path d="m311.160156 354.507812c-78.28125-60.296874-116.472656-1.957031-166.019531 21.78125v14.191407c0 7.238281 5.925781 13.167969 13.167969 13.167969h244.410156c7.242188 0 13.167969-5.929688 13.167969-13.167969v-37.703125c-23.296875 21.414062-59.175781 36.8125-104.726563 1.730468zm0 0" fill="#00c82f"/><path d="m229.464844 392.886719s23.367187-16.355469 2.335937-32.046875c-21.03125-15.6875 4.410157-32.035156 4.414063-32.039063-34.128906 4.898438-60.429688 32.804688-91.074219 47.488281v14.1875c0 7.242188 5.925781 13.167969 13.167969 13.167969h64.363281c.035156-6.441406 6.792969-10.757812 6.792969-10.757812zm0 0" fill="#02ad22"/><path d="m377.863281 218.121094c0 18.417968-14.929687 33.351562-33.351562 33.351562-18.417969 0-33.351563-14.933594-33.351563-33.351562 0-18.421875 14.933594-33.351563 33.351563-33.351563 18.421875 0 33.351562 14.929688 33.351562 33.351563zm0 0" fill="#fecd0a"/><path d="m368.460938 236.476562c-18.421876 0-33.351563-14.929687-33.351563-33.351562 0-6.675781 1.96875-12.886719 5.347656-18.101562-16.507812 2.003906-29.296875 16.054687-29.296875 33.097656 0 18.421875 14.929688 33.351562 33.351563 33.351562 11.746093 0 22.0625-6.074218 28.003906-15.246094-1.328125.15625-2.679687.25-4.054687.25zm0 0" fill="#fca60d"/><path d="m402.71875 414.621094h-244.410156c-13.3125 0-24.140625-10.832032-24.140625-24.140625v-244.414063c0-13.308594 10.828125-24.136718 24.140625-24.136718h244.410156c13.308594 0 24.140625 10.828124 24.140625 24.136718v244.414063c0 13.308593-10.832031 24.140625-24.140625 24.140625zm-244.410156-270.75c-1.191406 0-2.195313 1.007812-2.195313 2.195312v244.410156c0 1.191407 1.003907 2.195313 2.195313 2.195313h244.410156c1.1875 0 2.195312-1.003906 2.195312-2.195313v-244.410156c0-1.1875-1.007812-2.191406-2.195312-2.191406h-244.410156zm0 0" fill="#86fdfb"/><path d="m229.464844 392.886719s.105468-.074219.292968-.214844h-71.449218c-1.191406 0-2.195313-1.003906-2.195313-2.191406v-244.414063c0-1.1875 1.007813-2.191406 2.195313-2.191406h78.933594c.191406-1.875-.117188-3.789062-1.007813-5.527344-4.261719-8.351562 1.546875-14.613281 3.535156-16.417968h-81.460937c-13.3125 0-24.140625 10.828124-24.140625 24.136718v244.414063c0 13.308593 10.828125 24.140625 24.140625 24.140625h71.023437c-.011719-.011719-.023437-.023438-.035156-.035156-15.023437-12.019532.167969-21.699219.167969-21.699219zm0 0" fill="#86fdfb"/><path d="m429.804688 501.027344h-148.125c-7.242188 0-13.167969-5.925782-13.167969-13.167969v-213.289063c0-7.242187 5.925781-13.167968 13.167969-13.167968h148.125c7.242187 0 13.167968 5.921875 13.167968 13.167968v213.289063c0 7.242187-5.925781 13.167969-13.167968 13.167969zm0 0" fill="#4fbbff"/><path d="m268.511719 274.570312v213.289063c0 7.242187 5.925781 13.167969 13.167969 13.167969h44.308593c.398438-6.1875 7.464844-10.828125 7.464844-10.828125s26.875-16.191407 2.078125-26.871094c-24.796875-10.683594-5.667969-31.773437-5.667969-31.773437s15.441407-19.972657-4.652343-45.011719c-13.855469-17.257813-7.136719-27.347657-1.628907-31.949219 2.339844-1.953125 2.90625-5.328125 1.398438-7.980469-7.273438-12.800781-2.371094-22.199219 1.492187-26.890625 1.761719-2.140625 1.960938-5.167968.460938-7.5-11.289063-17.523437-5.070313-30.25-.515625-36.160156 1.699219-2.203125 1.792969-5.214844.234375-7.519531-1.769532-2.605469-2.53125-4.996094-2.671875-7.140625h-42.300781c-7.242188 0-13.167969 5.921875-13.167969 13.167968zm0 0" fill="#27a3ff"/><path d="m411.5 353.789062c-4.464844 7.488282-12.644531 12.519532-21.980469 12.519532-14.097656 0-25.570312-11.46875-25.570312-25.570313 0-1.203125.089843-2.390625.253906-3.550781-1.398437-1.042969-2.796875-2.121094-4.210937-3.277344-21.261719-17.453125-41.671876-22.617187-58.613282-22.453125-12.964844.128907-23.800781 3.253907-32.867187 7.601563v168.800781c0 7.242187 5.925781 13.167969 13.167969 13.167969h148.125c7.242187 0 13.167968-5.925782 13.167968-13.167969v-142.792969c-8.746094 4.652344-19.402344 8.378906-31.472656 8.722656zm0 0" fill="#27a3ff"/><path d="m333.453125 490.199219s26.875-16.191407 2.078125-26.871094c-24.796875-10.683594-5.667969-31.773437-5.667969-31.773437s15.441407-19.972657-4.652343-45.011719c-13.855469-17.261719-7.136719-27.347657-1.628907-31.949219 2.339844-1.953125 2.90625-5.332031 1.398438-7.980469-7.273438-12.804687-2.371094-22.199219 1.492187-26.890625.960938-1.164062 1.4375-2.59375 1.449219-4.03125-9.457031-3.152344-18.402344-4.3125-26.542969-4.230468-12.964844.125-23.800781 3.25-32.867187 7.597656v168.800781c0 7.242187 5.925781 13.167969 13.167969 13.167969h44.308593c.402344-6.1875 7.464844-10.828125 7.464844-10.828125zm0 0" fill="#0080f4"/><path d="m430.679688 391.242188c-7.160157-7.160157-18.769532-7.160157-25.929688 0l-12.71875 12.71875c-3.128906 3.128906-8.203125 3.128906-11.332031 0l-52.398438-52.398438c-7.914062-7.914062-20.738281-7.914062-28.648437 0l-31.140625 31.136719v105.160156c0 7.242187 5.925781 13.167969 13.167969 13.167969h148.128906c7.242187 0 13.167968-5.925782 13.167968-13.167969v-84.324219zm0 0" fill="#a2ec00"/><path d="m333.453125 490.199219s26.875-16.191407 2.078125-26.871094c-24.796875-10.683594-5.667969-31.773437-5.667969-31.773437s15.441407-19.972657-4.652343-45.011719c-13.855469-17.261719-7.136719-27.347657-1.628907-31.949219 1.550781-1.296875 2.300781-3.21875 2.207031-5.136719-7.917968-5.707031-19.015624-5.019531-26.136718 2.105469l-31.140625 31.136719v105.160156c0 7.242187 5.925781 13.167969 13.167969 13.167969h44.308593c.402344-6.1875 7.464844-10.828125 7.464844-10.828125zm0 0" fill="#00c82f"/><path d="m362.863281 449.761719c-41.578125-32.023438-69.007812-22.179688-94.351562-6.402344v44.5c0 7.242187 5.925781 13.167969 13.167969 13.167969h148.128906c7.242187 0 13.167968-5.925782 13.167968-13.167969v-36.34375c-18.628906 15.359375-45.972656 24.539063-80.113281-1.753906zm0 0" fill="#00c82f"/><path d="m333.453125 490.199219s26.875-16.191407 2.078125-26.871094c-24.710938-10.648437-5.804688-31.621094-5.671875-31.769531-24.363281-7.585938-43.378906.613281-61.347656 11.800781v44.5c0 7.242187 5.921875 13.167969 13.164062 13.167969h44.308594c.40625-6.1875 7.46875-10.828125 7.46875-10.828125zm0 0" fill="#02ad22"/><path d="m416.179688 340.738281c0 14.726563-11.933594 26.660157-26.660157 26.660157-14.722656 0-26.660156-11.933594-26.660156-26.660157 0-14.722656 11.9375-26.660156 26.660156-26.660156 14.726563 0 26.660157 11.9375 26.660157 26.660156zm0 0" fill="#fecd0a"/><path d="m413.46875 352.40625c-14.722656 0-26.660156-11.9375-26.660156-26.660156 0-4.183594.964844-8.140625 2.683594-11.667969-14.710938.015625-26.632813 11.945313-26.632813 26.660156 0 14.726563 11.9375 26.660157 26.660156 26.660157 10.542969 0 19.652344-6.117188 23.980469-14.996094-.011719 0-.019531.003906-.03125.003906zm0 0" fill="#fca60d"/><path d="m429.804688 512h-148.125c-13.3125 0-24.140626-10.828125-24.140626-24.140625v-213.292969c0-13.308594 10.828126-24.140625 24.140626-24.140625h148.125c13.3125 0 24.140624 10.832031 24.140624 24.140625v213.292969c0 13.3125-10.828124 24.140625-24.140624 24.140625zm-148.125-239.625c-1.191407 0-2.195313 1.003906-2.195313 2.191406v213.292969c0 1.191406 1.003906 2.195313 2.195313 2.195313h148.125c1.191406 0 2.195312-1.007813 2.195312-2.195313v-213.292969c0-1.1875-1.007812-2.191406-2.195312-2.191406zm0 0" fill="#86fdfb"/><g fill="#11dfef"><path d="m333.453125 490.199219s.085937-.050781.234375-.144531h-52.007812c-1.191407 0-2.195313-1.007813-2.195313-2.195313v-213.292969c0-1.1875 1.003906-2.191406 2.195313-2.191406h46.074218c.046875-1.328125-.316406-2.671875-1.105468-3.832031-6.53125-9.628907.558593-16.414063 2.660156-18.117188h-47.628906c-13.3125 0-24.140626 10.832031-24.140626 24.140625v213.292969c0 13.3125 10.828126 24.140625 24.140626 24.140625h51.773437c-16.859375-10.75 0-21.800781 0-21.800781zm0 0"/><path d="m229.464844 392.886719s.105468-.074219.292968-.214844h-71.449218c-1.191406 0-2.195313-1.003906-2.195313-2.191406v-244.414063c0-1.1875 1.007813-2.191406 2.195313-2.191406h78.933594c.191406-1.875-.117188-3.789062-1.007813-5.527344-4.261719-8.351562 1.546875-14.613281 3.535156-16.417968h-81.460937c-13.3125 0-24.140625 10.828124-24.140625 24.136718v244.414063c0 13.308593 10.828125 24.140625 24.140625 24.140625h71.023437c-.011719-.011719-.023437-.023438-.035156-.035156-15.023437-12.019532.167969-21.699219.167969-21.699219zm0 0"/></g></svg>